<svg width="264" height="187" viewBox="0 0 264 187" fill="none" xmlns="http://www.w3.org/2000/svg">
<g clip-path="url(#clip0_1617_23782)">
<g clip-path="url(#clip1_1617_23782)">
<path d="M184.984 144.671V183.44C184.984 185.003 186.252 186.27 187.815 186.27C189.378 186.27 190.645 185.003 190.645 183.44V144.671C190.645 143.108 189.378 141.84 187.815 141.84C186.252 141.84 184.984 143.108 184.984 144.671Z" fill="#182A3D"/>
<path d="M220.2 144.669V183.438C220.2 185.001 221.467 186.268 223.031 186.268C224.594 186.268 225.861 185.001 225.861 183.438V144.669C225.861 143.106 224.594 141.839 223.031 141.839C221.467 141.839 220.2 143.106 220.2 144.669Z" fill="#182A3D"/>
<path d="M220.274 94.6326H215.548V108.743H220.274V94.6326Z" fill="#DADBE7"/>
<path d="M195.488 94.6328H190.762V108.743H195.488V94.6328Z" fill="#DADBE7"/>
<path d="M224.283 104.79H186.563C180.131 104.79 174.916 110.004 174.916 116.437V168.003C174.916 174.436 180.131 179.651 186.563 179.651H224.283C230.715 179.651 235.93 174.436 235.93 168.003V116.437C235.93 110.004 230.715 104.79 224.283 104.79Z" fill="#A7D4F9"/>
<path d="M188.904 120.64C188.904 119.557 188.027 118.679 186.944 118.679C185.862 118.679 184.984 119.557 184.984 120.64V168.436C184.984 169.519 185.862 170.397 186.944 170.397C188.027 170.397 188.904 169.519 188.904 168.436V120.64Z" fill="white"/>
<path d="M201.222 120.64C201.222 119.557 200.345 118.679 199.263 118.679C198.18 118.679 197.303 119.557 197.303 120.64V168.436C197.303 169.519 198.18 170.397 199.263 170.397C200.345 170.397 201.222 169.519 201.222 168.436V120.64Z" fill="white"/>
<path d="M213.543 120.64C213.543 119.557 212.665 118.679 211.583 118.679C210.501 118.679 209.623 119.557 209.623 120.64V168.436C209.623 169.519 210.501 170.397 211.583 170.397C212.665 170.397 213.543 169.519 213.543 168.436V120.64Z" fill="white"/>
<path d="M225.862 120.64C225.862 119.557 224.985 118.679 223.902 118.679C222.82 118.679 221.942 119.557 221.942 120.64V168.436C221.942 169.519 222.82 170.397 223.902 170.397C224.985 170.397 225.862 169.519 225.862 168.436V120.64Z" fill="white"/>
<path d="M224.581 90.1199H185.812C184.249 90.1199 182.981 91.3872 182.981 92.9504C182.981 94.5137 184.249 95.781 185.812 95.781H224.581C226.144 95.781 227.411 94.5137 227.411 92.9504C227.411 91.3872 226.144 90.1199 224.581 90.1199Z" fill="#182A3D"/>
</g>
<g clip-path="url(#clip2_1617_23782)">
<path d="M100.02 64.2971C98.6617 57.5981 97.6764 50.8289 97.0687 44.0206C95.7693 29.1543 96.8858 18.3397 100.356 11.8853C101.128 10.3962 102.197 9.08166 103.498 8.0233C104.799 6.96493 106.303 6.18534 107.918 5.73297C117.26 2.99524 129.683 9.79184 130.207 10.0825L128.721 12.766C128.604 12.7007 116.877 6.29925 108.774 8.68012C107.55 9.01742 106.409 9.60606 105.424 10.4085C104.44 11.211 103.634 12.2097 103.057 13.3411C95.375 27.5939 102.941 63.291 103.019 63.6504L100.02 64.2971Z" fill="#DADBE7"/>
<path d="M132.671 80.2429L131.115 77.5999C136.758 74.1726 142.2 70.4229 147.412 66.3695C155.14 60.342 165.063 51.3581 168.47 42.771C169.572 39.9954 169.537 37.4884 168.365 35.1122C165.187 28.6657 154.85 25.6612 154.744 25.6317L155.586 22.6811C156.064 22.8161 167.344 26.0993 171.118 33.7551C172.672 36.9102 172.743 40.3244 171.327 43.9021C168.386 51.3136 160.967 59.6971 149.288 68.8104C143.975 72.9388 138.426 76.7561 132.671 80.2429Z" fill="#DADBE7"/>
<path d="M136.213 76.9202C135.894 75.954 135.205 75.1541 134.296 74.6962C133.388 74.2383 132.335 74.1599 131.368 74.4783C124.968 76.5782 119.034 79.8968 113.894 84.2509C113.894 84.2509 111.993 85.9715 110.901 85.3475C109.965 84.8122 109.54 83.1612 109.408 82.5337C107.842 72.2993 105.451 61.7925 105.302 61.1492C105.041 60.195 104.421 59.3787 103.572 58.8707C102.723 58.3627 101.711 58.2024 100.747 58.4234C99.7824 58.6443 98.9408 59.2293 98.3977 60.0562C97.8547 60.8831 97.6522 61.8879 97.8326 62.8606C97.883 63.0847 102.966 85.3968 103.083 95.9313C103.125 99.8011 102.078 107.304 99.679 114.636C97.6125 120.944 93.7911 129.437 87.3068 134.081C81.8927 137.958 75.5453 138.534 67.9059 135.841C57.4877 132.17 52.0178 125.063 49.2621 119.746C45.5932 112.662 44.9904 105.625 45.6461 101.42C47.0537 92.4039 52.6969 90.1642 59.8353 87.332C63.414 85.9125 67.1106 84.4377 70.3693 81.9899C74.9981 78.5061 77.9674 71.114 79.2202 60.0184C79.7576 55.0976 79.953 50.1455 79.8053 45.1976C79.7963 44.6858 79.685 44.1809 79.4779 43.7128C79.2708 43.2446 78.9722 42.8226 78.5996 42.4716C78.2269 42.1206 77.7878 41.8477 77.3081 41.669C76.8284 41.4903 76.3178 41.4094 75.8063 41.431C75.2949 41.4527 74.7929 41.5765 74.33 41.7951C73.8671 42.0136 73.4526 42.3226 73.111 42.7039C72.7693 43.0851 72.5074 43.5308 72.3406 44.0148C72.1739 44.4988 72.1056 45.0112 72.1399 45.522C72.2681 50.105 72.0837 54.6915 71.5882 59.2495C70.6261 67.7388 68.4989 73.7922 65.7557 75.8571C63.323 77.6889 60.2546 78.9081 57.0057 80.1958C53.0831 81.7532 49.0275 83.3624 45.5568 86.2557C41.4471 89.6838 38.9941 94.2516 38.061 100.23C36.9662 107.246 38.6047 115.859 42.4469 123.272C46.4054 131.005 52.7567 137.251 60.5542 141.08C62.1091 141.845 63.7077 142.518 65.3419 143.094C70.5027 144.913 75.4371 145.545 80.0082 144.976C84.2533 144.442 88.2952 142.846 91.7594 140.335C96.269 137.103 102.567 130.439 106.957 117.037C108.162 113.329 109.104 109.541 109.774 105.7C111.007 98.1644 115.061 93.7966 115.061 93.7966C115.224 93.6165 115.392 93.4359 115.562 93.2576C120.515 87.9962 126.644 84.1335 133.775 81.7794C134.255 81.6215 134.699 81.3704 135.082 81.0404C135.464 80.7104 135.778 80.308 136.004 79.8565C136.231 79.4049 136.366 78.9131 136.402 78.4092C136.438 77.9053 136.374 77.3992 136.213 76.9202Z" fill="#172A3D"/>
<path d="M77.5321 53.0459C83.1725 52.5193 87.318 47.5199 86.7913 41.8795C86.2647 36.2391 81.2654 32.0936 75.625 32.6202C69.9846 33.1469 65.8391 38.1462 66.3657 43.7866C66.8923 49.427 71.8917 53.5725 77.5321 53.0459Z" fill="#DADBE7"/>
<path d="M77.0672 48.0663C79.9574 47.7965 82.0817 45.2347 81.8118 42.3444C81.542 39.4542 78.9802 37.3299 76.0899 37.5998C73.1997 37.8696 71.0754 40.4314 71.3453 43.3217C71.6151 46.2119 74.1769 48.3362 77.0672 48.0663Z" fill="#172A3D"/>
<path d="M136.856 17.7925C137.934 15.595 136.14 12.5053 132.849 10.8916C129.558 9.2778 126.017 9.75104 124.939 11.9485C123.862 14.146 125.656 17.2357 128.947 18.8494C132.237 20.4632 135.779 19.99 136.856 17.7925Z" fill="#172A3D"/>
<path d="M156.882 25.9013C157.966 23.6973 156.17 20.5944 152.869 18.9706C149.569 17.3469 146.014 17.8172 144.93 20.0212C143.846 22.2251 145.642 25.3281 148.943 26.9519C152.243 28.5756 155.798 28.1052 156.882 25.9013Z" fill="#172A3D"/>
</g>
<path fill-rule="evenodd" clip-rule="evenodd" d="M186.595 146.131C177.144 173.632 140.766 185.561 139.222 186.061C138.612 186.257 137.953 186.257 137.344 186.061C135.799 185.561 99.4207 173.632 89.9703 146.131C82.1488 123.398 83.6294 89.3088 83.7546 86.4257L83.7609 86.2795C83.8191 85.4616 84.2116 84.7 84.8513 84.164C85.51 83.6358 86.3677 83.4011 87.2139 83.5176C105.714 84.4545 123.666 77.2685 136.102 63.9492C137.316 62.8033 139.25 62.8033 140.463 63.9492C162.833 86.7343 189.074 83.5513 189.351 83.5177L189.351 83.5176C190.197 83.4011 191.055 83.6358 191.714 84.164C192.354 84.7 192.746 85.4616 192.804 86.2795L192.811 86.4256C192.936 89.3084 194.417 123.398 186.595 146.131Z" fill="#2B96ED"/>
<path fill-rule="evenodd" clip-rule="evenodd" d="M131.813 101.564C131.436 101.564 131.13 101.87 131.13 102.247V116.954L116.422 116.954C116.045 116.954 115.739 117.259 115.739 117.636L115.739 131.66C115.739 132.038 116.045 132.343 116.422 132.343H131.13V147.051C131.13 147.428 131.436 147.733 131.813 147.733H145.837C146.214 147.733 146.52 147.428 146.52 147.051V132.343H161.226C161.603 132.343 161.909 132.038 161.909 131.66L161.909 117.636C161.909 117.259 161.603 116.954 161.226 116.954L146.52 116.954V102.247C146.52 101.87 146.214 101.564 145.837 101.564H131.813Z" fill="white"/>
<g clip-path="url(#clip3_1617_23782)">
<path d="M94.7113 125.762H73.1037C68.6455 125.762 65.0313 129.376 65.0313 133.834V178.095C65.0313 182.553 68.6455 186.168 73.1037 186.168H94.7113C99.1696 186.168 102.784 182.553 102.784 178.095V133.834C102.784 129.376 99.1696 125.762 94.7113 125.762Z" fill="#182A3D"/>
<path d="M97.1187 138.227L71.3282 178.905C71.6724 179.212 72.1172 179.382 72.5783 179.382H73.3807L97.1187 141.677V138.227Z" fill="#A7D4F9"/>
<path d="M72.5817 134.518C72.0812 134.518 71.6012 134.717 71.2473 135.071C70.8934 135.425 70.6946 135.905 70.6946 136.405V171.451L94.284 134.518H72.5817Z" fill="#A7D4F9"/>
<path d="M75.6778 179.384H95.2348C95.4828 179.384 95.7283 179.335 95.9574 179.24C96.1865 179.145 96.3946 179.006 96.5699 178.831C96.7451 178.655 96.8841 178.447 96.9788 178.218C97.0735 177.989 97.1222 177.743 97.1219 177.495V144.99L75.6778 179.384Z" fill="#A7D4F9"/>
<path d="M97.119 136.405C97.119 135.904 96.9202 135.424 96.5662 135.071C96.2123 134.717 95.7324 134.518 95.2318 134.518H94.279L70.6895 171.451V177.495C70.6894 177.762 70.7461 178.026 70.856 178.27C70.9658 178.513 71.1263 178.73 71.3267 178.907L97.1171 138.229L97.119 136.405Z" fill="white"/>
<path d="M97.1221 141.676L73.3841 179.384H75.678L97.1221 144.999V141.676Z" fill="white"/>
<path d="M88.4701 129.685H78.8115C78.4012 129.685 78.0685 130.017 78.0685 130.428C78.0685 130.838 78.4012 131.171 78.8115 131.171H88.4701C88.8805 131.171 89.2131 130.838 89.2131 130.428C89.2131 130.017 88.8805 129.685 88.4701 129.685Z" fill="white"/>
</g>
</g>
<defs>
<clipPath id="clip0_1617_23782">
<rect width="264" height="187" fill="white"/>
</clipPath>
<clipPath id="clip1_1617_23782">
<rect width="61.0142" height="96.1502" fill="white" transform="translate(174.916 90.1199)"/>
</clipPath>
<clipPath id="clip2_1617_23782">
<rect width="140.342" height="136.294" fill="white" transform="translate(29 12.8185) rotate(-5.33412)"/>
</clipPath>
<clipPath id="clip3_1617_23782">
<rect width="37.7524" height="60.4056" fill="white" transform="translate(65.0313 125.762)"/>
</clipPath>
</defs>
</svg>
