<svg width="15" height="15" viewBox="0 0 15 15" fill="none" xmlns="http://www.w3.org/2000/svg">
<path d="M6.60938 8.5L5.35938 7.23438C5.22396 7.09896 5.0625 7.03125 4.875 7.03125C4.6875 7.03125 4.52604 7.10417 4.39063 7.25C4.25521 7.375 4.1875 7.53646 4.1875 7.73438C4.1875 7.93229 4.25521 8.09375 4.39063 8.21875L6.10937 9.95312C6.24479 10.0885 6.41146 10.1562 6.60938 10.1562C6.80729 10.1562 6.97396 10.0885 7.10938 9.95312L10.6094 6.45312C10.7344 6.32812 10.7969 6.17188 10.7969 5.98438C10.7969 5.79687 10.7292 5.63542 10.5938 5.5C10.4583 5.36458 10.2917 5.29688 10.0938 5.29688C9.89583 5.29688 9.73438 5.36458 9.60938 5.5L6.60938 8.5ZM7.5 13.875C6.61458 13.875 5.78375 13.7083 5.0075 13.375C4.23167 13.0417 3.55729 12.5885 2.98438 12.0156C2.41146 11.4427 1.95833 10.7683 1.625 9.9925C1.29167 9.21625 1.125 8.38542 1.125 7.5C1.125 6.61458 1.29167 5.78375 1.625 5.0075C1.95833 4.23167 2.41146 3.55729 2.98438 2.98438C3.55729 2.41146 4.23167 1.95833 5.0075 1.625C5.78375 1.29167 6.61458 1.125 7.5 1.125C8.38542 1.125 9.21625 1.29167 9.9925 1.625C10.7683 1.95833 11.4427 2.41146 12.0156 2.98438C12.5885 3.55729 13.0417 4.23167 13.375 5.0075C13.7083 5.78375 13.875 6.61458 13.875 7.5C13.875 8.38542 13.7083 9.21625 13.375 9.9925C13.0417 10.7683 12.5885 11.4427 12.0156 12.0156C11.4427 12.5885 10.7683 13.0417 9.9925 13.375C9.21625 13.7083 8.38542 13.875 7.5 13.875Z" fill="#2B96ED"/>
</svg>
